<svg xmlns="http://www.w3.org/2000/svg" width="89.13" height="106.074" viewBox="0 0 89.13 106.074">
  <g id="shield" transform="translate(-17.112 0)">
    <path id="Path_20" data-name="Path 20" d="M106.128,27.312c-.054-2.864-.106-5.569-.106-8.187a3.713,3.713,0,0,0-3.713-3.713c-15.879,0-27.968-4.563-38.045-14.361a3.712,3.712,0,0,0-5.177,0c-10.076,9.8-22.164,14.361-38.041,14.361a3.713,3.713,0,0,0-3.713,3.713c0,2.618-.051,5.324-.106,8.189-.509,26.651-1.206,63.151,43.233,78.555a3.709,3.709,0,0,0,2.432,0C107.333,90.465,106.637,53.964,106.128,27.312ZM61.675,98.421C23.563,84.576,24.14,54.247,24.651,27.456c.031-1.608.06-3.166.081-4.694,14.871-.628,26.763-5.134,36.943-14,10.181,8.868,22.075,13.375,36.947,14,.021,1.527.05,3.085.081,4.692C99.215,54.246,99.79,84.576,61.675,98.421Z" transform="translate(0 0)" fill="#ffd100"/>
    <path id="Path_21" data-name="Path 21" d="M100.414,79.973,82.494,97.892l-7.647-7.647A3.713,3.713,0,0,0,69.6,95.5l10.272,10.272a3.713,3.713,0,0,0,5.25,0l20.545-20.544a3.713,3.713,0,0,0-5.25-5.251Z" transform="translate(-25.953 -39.834)" fill="#ffd100"/>
  </g>
</svg>
