<svg xmlns="http://www.w3.org/2000/svg" width="89.13" height="89.716" viewBox="0 0 89.13 89.716">
  <g id="Group_8" data-name="Group 8" transform="translate(-1629 -2401)">
    <path id="Path_18" data-name="Path 18" d="M72.488,42.3a29.608,29.608,0,0,0-8.046-16.391A24.379,24.379,0,0,0,47.03,18.4a23.912,23.912,0,0,0-14,4.581,27.525,27.525,0,0,0-8.376,9.794,13.361,13.361,0,0,0-2.713-.285c-7.789,0-14.131,7.045-14.131,15.7A19,19,0,0,0,8.1,51.446,22.693,22.693,0,0,0,0,69.058,24.884,24.884,0,0,0,5.334,84.513c3.537,4.439,8.211,7.065,13.2,7.371H34.439a2.764,2.764,0,0,0,0-5.5H18.75c-7.5-.509-13.8-8.43-13.8-17.348a16.735,16.735,0,0,1,7.276-14.049,2.925,2.925,0,0,0,1.081-3.339,10.971,10.971,0,0,1-.55-3.5c0-5.62,4.124-10.2,9.182-10.2a8.224,8.224,0,0,1,3.134.611,2.4,2.4,0,0,0,3.1-1.4C31.6,29.069,39,23.857,47.048,23.857c10.814,0,19.739,9,20.766,20.931a2.646,2.646,0,0,0,2.053,2.443c8.156,1.547,14.314,9.916,14.314,19.465,0,10.119-7.166,18.915-16,19.669H54.673a2.764,2.764,0,0,0,0,5.5H68.456a21.2,21.2,0,0,0,14.7-8.063A26.988,26.988,0,0,0,89.13,66.7C89.112,55.274,82.092,45.114,72.488,42.3Z" transform="translate(1629 2382.6)" fill="#0d13d7"/>
    <path id="Path_19" data-name="Path 19" d="M179.176,209.119a1.7,1.7,0,0,1,0,2.411l-9.025,9.025a1.724,1.724,0,0,1-1.2.5,1.672,1.672,0,0,1-1.2-.5l-9.025-9.025a1.71,1.71,0,0,1,1.2-2.916,1.663,1.663,0,0,1,1.2.5l6.122,6.122V187.1a1.7,1.7,0,1,1,3.408,0v28.137l6.122-6.122A1.684,1.684,0,0,1,179.176,209.119Z" transform="translate(1504.624 2269.656)" fill="#0d13d7"/>
  </g>
</svg>
