<svg xmlns="http://www.w3.org/2000/svg" xmlns:xlink="http://www.w3.org/1999/xlink" width="56.103" height="79.156" viewBox="0 0 56.103 79.156">
  <defs>
    <radialGradient id="radial-gradient" cx="0.27" cy="0.458" r="0.627" gradientTransform="matrix(0.966, -0.259, -0.265, -0.989, 0.131, 0.98)" gradientUnits="objectBoundingBox">
      <stop offset="0" stop-color="#480061"/>
      <stop offset="1" stop-color="#0e0013"/>
    </radialGradient>
  </defs>
  <path id="Path_1399" data-name="Path 1399" d="M-3394.42,80.636l.115-.066a15.877,15.877,0,0,0,6.07-21.589,15.877,15.877,0,0,0-21.731-5.538l-.115.067L-3415,44.991a26.512,26.512,0,0,1,9.789-3.3,26.342,26.342,0,0,1,5-.167,26.2,26.2,0,0,1,4.632.708,24.741,24.741,0,0,1-1.766-6.745,25.222,25.222,0,0,1-.086-4.941,25.7,25.7,0,0,1,.864-4.85,26.125,26.125,0,0,1,1.774-4.621,26.337,26.337,0,0,1,2.647-4.25A26.525,26.525,0,0,1-3384.4,10l4.919,8.519-.115.066a15.878,15.878,0,0,0-6.07,21.589,15.878,15.878,0,0,0,21.731,5.538l.114-.067,4.918,8.52a26.526,26.526,0,0,1-9.788,3.3,26.35,26.35,0,0,1-5,.167,26.205,26.205,0,0,1-4.632-.708,24.785,24.785,0,0,1,1.767,6.745,25.3,25.3,0,0,1,.086,4.941,25.775,25.775,0,0,1-.864,4.85,26.129,26.129,0,0,1-1.775,4.621,26.316,26.316,0,0,1-2.646,4.25,26.528,26.528,0,0,1-7.75,6.829Z" transform="translate(3415 -10)" fill="url(#radial-gradient)"/>
</svg>
